<?xml version="1.0" encoding="UTF-8"?>
<!DOCTYPE svg PUBLIC "-//W3C//DTD SVG 1.1//EN" "http://www.w3.org/Graphics/SVG/1.1/DTD/svg11.dtd">
<svg version="1.1" xmlns="http://www.w3.org/2000/svg" xmlns:xlink="http://www.w3.org/1999/xlink" x="0" y="0" width="24" height="12" viewBox="0, 0, 24, 12">
  <g id="Background">
    <rect x="0" y="0" width="24" height="12" fill="#FFFFFF"/>
  </g>
  <g id="Layer_1">
    <path d="M23.8,7.154 C23.768,7.14 23.734,7.132 23.699,7.13 C23.629,7.128 23.559,7.145 23.497,7.178 C23.437,7.206 23.405,7.258 23.37,7.314 C23.283,7.442 23.22,7.582 23.144,7.714 C23.037,7.901 22.898,8.065 22.764,8.229 C22.629,8.385 22.478,8.52 22.34,8.669 C22.312,8.696 22.268,8.712 22.233,8.696 C22.205,8.68 22.197,8.64 22.201,8.608 C22.241,8.228 22.276,7.845 22.324,7.47 C22.344,7.298 22.367,7.134 22.387,6.958 C22.415,6.711 22.443,6.471 22.474,6.223 L22.708,4.399 C22.728,4.271 22.74,4.027 22.573,3.879 C22.509,3.818 22.427,3.778 22.34,3.763 C22.251,3.758 22.163,3.779 22.086,3.823 C21.86,3.983 21.789,4.327 21.721,4.583 C21.579,5.186 21.543,5.824 21.25,6.387 C21.194,6.499 21.126,6.605 21.048,6.703 C20.998,6.775 20.935,6.836 20.862,6.883 C20.79,6.932 20.702,6.95 20.616,6.934 C20.509,6.905 20.422,6.828 20.378,6.727 C20.336,6.624 20.315,6.514 20.315,6.403 C20.299,5.865 20.381,5.328 20.555,4.818 C20.6,4.686 20.644,4.566 20.659,4.435 C20.687,4.279 20.687,4.055 20.545,3.919 C20.414,3.791 20.208,3.739 20.041,3.791 C19.847,3.847 19.731,4.035 19.669,4.183 C19.471,4.646 19.419,5.133 19.352,5.629 C19.308,5.956 19.225,6.269 19.059,6.555 C18.901,6.828 18.697,7.072 18.456,7.275 C18.338,7.362 18.234,7.398 18.128,7.382 C18.007,7.362 17.903,7.285 17.85,7.174 C17.799,7.076 17.766,6.969 17.755,6.859 C17.724,6.655 17.712,6.449 17.719,6.243 C17.723,6.02 17.719,5.803 17.763,5.585 C17.838,5.195 18.441,3.648 18.571,3.24 C18.706,2.833 18.833,2.417 18.924,1.994 C19.004,1.614 19.047,1.227 19.034,0.844 C19.027,0.567 18.964,0.268 18.746,0.108 C18.568,-0.013 18.338,-0.031 18.143,0.06 C17.948,0.148 17.788,0.299 17.688,0.488 C17.588,0.674 17.512,0.873 17.462,1.078 C17.35,1.503 17.261,1.933 17.196,2.368 C17.125,2.797 17.058,3.216 16.99,3.636 C16.93,3.991 16.784,5.25 16.729,5.516 C16.669,5.788 16.554,6.056 16.428,6.303 C16.297,6.571 16.17,6.839 16.02,7.094 C15.978,7.18 15.918,7.256 15.845,7.318 C15.765,7.378 15.663,7.406 15.575,7.366 C15.473,7.318 15.429,7.19 15.409,7.074 C15.334,6.639 15.397,6.199 15.481,5.772 C15.564,5.341 15.921,3.372 16,2.921 C16.099,2.389 16.24,1.871 16.285,1.331 C16.313,0.943 16.375,0.451 16.083,0.144 C15.968,0.008 15.773,-0.016 15.643,0.008 C15.469,0.044 15.333,0.184 15.255,0.304 C15.155,0.432 15.069,0.584 14.997,0.771 C14.882,1.055 14.811,1.386 14.736,1.681 L14.704,1.81 C14.621,2.193 14.561,2.58 14.518,2.972 C14.494,3.182 14.474,3.393 14.458,3.604 C14.45,3.704 14.442,3.807 14.431,3.911 C14.431,3.991 14.438,4.079 14.403,4.155 C14.389,4.18 14.371,4.203 14.351,4.223 C14.271,4.295 14.149,4.283 14.041,4.279 C13.484,4.263 12.996,4.579 12.691,5.034 C12.511,5.286 12.41,5.576 12.301,5.868 C12.291,5.916 12.267,5.968 12.247,6.02 C12.196,6.163 12.117,6.347 12.025,6.531 C11.934,6.694 11.828,6.848 11.708,6.991 C11.592,7.138 11.463,7.276 11.324,7.401 C11.178,7.531 11,7.621 10.809,7.661 C10.635,7.701 10.425,7.618 10.266,7.458 C10.141,7.305 10.069,7.116 10.06,6.918 C10.056,6.863 10.056,6.803 10.088,6.755 C10.138,6.687 10.234,6.683 10.318,6.679 C10.932,6.629 11.464,6.236 11.693,5.664 C11.831,5.324 11.871,4.966 11.815,4.618 C11.787,4.446 11.723,4.282 11.625,4.138 C11.527,3.994 11.389,3.882 11.229,3.815 C10.936,3.675 10.571,3.688 10.219,3.819 C9.644,4.051 9.268,4.559 9.085,5.381 L9.065,5.469 C8.951,5.956 8.835,6.469 8.483,6.823 C8.356,6.943 8.222,6.986 8.115,6.966 C8.071,6.962 8.035,6.926 8.012,6.891 C7.916,6.731 8.015,6.359 8.162,5.891 C8.201,5.771 8.234,5.648 8.262,5.525 C8.273,5.353 8.235,5.182 8.154,5.03 C8.068,4.885 7.938,4.771 7.782,4.706 C7.639,4.642 7.472,4.646 7.314,4.646 L7.267,4.646 C7.223,4.646 7.164,4.646 7.116,4.634 C7.05,4.617 6.995,4.57 6.969,4.507 C6.955,4.43 6.961,4.35 6.985,4.275 C6.989,4.255 6.997,4.227 7.001,4.203 C7.045,4.045 6.979,3.877 6.839,3.791 C6.698,3.703 6.524,3.69 6.371,3.755 C6.214,3.827 6.086,3.949 6.007,4.103 C5.921,4.247 5.885,4.416 5.904,4.583 C5.944,4.713 5.974,4.903 5.947,5.058 C5.892,5.338 5.725,5.568 5.563,5.798 C5.523,5.848 5.491,5.904 5.456,5.958 C5.252,6.258 5.015,6.535 4.75,6.783 C4.378,7.118 3.946,7.358 3.518,7.453 C2.773,7.618 2.012,7.393 1.608,6.719 C1.386,6.339 1.288,5.892 1.26,5.453 C1.199,4.593 1.345,3.73 1.684,2.937 C2.012,2.177 2.5,1.417 3.399,1.323 C3.752,1.283 4.152,1.406 4.311,1.723 C4.426,1.953 4.386,2.229 4.311,2.473 C4.239,2.717 4.136,2.963 4.131,3.223 C4.128,3.483 4.255,3.763 4.501,3.839 C4.739,3.911 4.996,3.759 5.135,3.549 C5.273,3.339 5.321,3.089 5.38,2.845 C5.523,2.272 5.746,1.722 6.042,1.211 C6.181,0.975 6.339,0.723 6.296,0.451 C6.258,0.254 6.114,0.095 5.923,0.036 C5.732,-0.017 5.527,0.038 5.388,0.18 C5.254,0.328 5.182,0.551 5.001,0.61 C4.831,0.67 4.651,0.555 4.494,0.476 C3.894,0.156 3.158,0.164 2.531,0.428 C1.897,0.678 1.385,1.163 1.005,1.722 C0.462,2.53 0.098,3.508 0.022,4.48 C-0.005,4.82 -0.009,5.175 0.022,5.518 C0.058,5.978 0.122,6.372 0.236,6.724 C0.375,7.147 0.553,7.514 0.783,7.818 C1.049,8.158 1.37,8.418 1.723,8.565 C2.095,8.713 2.507,8.785 2.915,8.773 C3.322,8.755 3.721,8.659 4.092,8.49 C4.465,8.314 4.81,8.085 5.118,7.81 C5.427,7.55 5.712,7.251 5.958,6.92 C6.12,6.696 6.267,6.46 6.398,6.212 C6.463,6.087 6.522,5.959 6.576,5.829 C6.62,5.725 6.663,5.614 6.778,5.569 C6.834,5.526 6.928,5.549 6.98,5.582 C7.044,5.622 7.095,5.657 7.115,5.717 C7.163,5.833 7.135,5.949 7.111,6.049 L7.111,6.061 C7.083,6.161 7.056,6.264 7.02,6.364 C6.88,6.788 6.782,7.175 6.86,7.559 C6.905,7.766 6.988,7.946 7.11,8.086 C7.242,8.23 7.42,8.323 7.614,8.35 C7.86,8.39 8.124,8.322 8.339,8.218 C8.482,8.15 8.617,8.062 8.736,7.958 C8.796,7.898 8.858,7.838 8.91,7.774 C8.954,7.714 8.997,7.627 9.088,7.631 C9.131,7.636 9.17,7.659 9.195,7.695 C9.223,7.726 9.235,7.766 9.255,7.81 C9.485,8.33 10.031,8.65 10.59,8.65 L10.66,8.65 C10.93,8.65 11.216,8.557 11.45,8.43 C11.72,8.29 11.93,8.082 12.15,7.878 C12.17,7.862 12.195,7.838 12.223,7.834 C12.258,7.826 12.293,7.846 12.322,7.878 C12.345,7.908 12.361,7.942 12.369,7.978 C12.504,8.318 12.829,8.578 13.193,8.638 C13.562,8.695 13.935,8.561 14.183,8.282 C14.239,8.222 14.287,8.154 14.35,8.106 C14.414,8.062 14.5,8.03 14.572,8.062 C14.679,8.102 14.707,8.226 14.754,8.33 C14.861,8.565 15.111,8.701 15.369,8.705 C15.658,8.705 15.923,8.557 16.133,8.365 C16.328,8.182 16.486,7.966 16.649,7.755 C16.677,7.716 16.713,7.683 16.755,7.659 C16.795,7.635 16.851,7.631 16.885,7.659 C16.918,7.683 16.93,7.719 16.945,7.75 C17.108,8.15 17.532,8.402 17.955,8.398 C18.372,8.394 18.764,8.174 19.058,7.882 C19.153,7.79 19.252,7.682 19.378,7.672 C19.518,7.655 19.585,7.786 19.632,7.892 C19.704,8.034 19.747,8.13 19.882,8.23 C20.04,8.346 20.242,8.382 20.429,8.33 C20.599,8.29 20.769,8.174 20.899,8.014 C20.971,7.926 21.011,7.81 21.089,7.73 C21.181,7.643 21.221,7.758 21.225,7.83 C21.241,7.946 21.241,8.066 21.233,8.182 C21.217,8.418 21.181,8.653 21.153,8.885 C21.142,8.953 21.133,9.021 21.09,9.073 C21.03,9.141 20.924,9.153 20.837,9.137 C20.731,9.122 20.623,9.112 20.516,9.109 L20.376,9.093 C20.175,9.081 19.976,9.057 19.766,9.049 L19.581,9.049 C19.177,9.049 18.848,9.097 18.551,9.209 C18.071,9.396 17.699,9.779 17.548,10.227 C17.478,10.433 17.46,10.653 17.496,10.867 C17.536,11.07 17.626,11.27 17.778,11.454 C18.043,11.769 18.458,11.969 18.927,11.997 C19.335,12.017 19.779,11.933 20.219,11.737 C21.067,11.37 21.701,10.643 21.915,9.787 C21.915,9.767 21.925,9.748 21.938,9.744 C22.236,9.64 22.508,9.496 22.751,9.316 C22.996,9.129 23.218,8.917 23.401,8.673 C23.491,8.553 23.575,8.43 23.654,8.303 C23.724,8.178 23.784,8.046 23.856,7.923 C23.919,7.827 23.963,7.72 23.986,7.607 C24.016,7.495 23.998,7.376 23.936,7.279 C23.908,7.222 23.86,7.178 23.801,7.155 M10.121,5.525 C10.138,5.454 10.166,5.385 10.181,5.319 C10.243,5.139 10.331,4.969 10.443,4.815 C10.483,4.767 10.523,4.715 10.578,4.679 C10.631,4.638 10.698,4.621 10.764,4.631 C10.871,4.651 10.947,4.759 10.966,4.867 C10.998,5.047 10.926,5.263 10.852,5.422 C10.783,5.583 10.677,5.725 10.542,5.837 C10.482,5.881 10.428,5.925 10.364,5.953 C10.336,5.961 10.301,5.981 10.249,5.981 L10.233,5.981 C10.178,5.981 10.119,5.953 10.107,5.893 C10.084,5.771 10.09,5.646 10.122,5.526 M14.43,5.342 C14.426,5.414 14.406,5.49 14.402,5.565 C14.381,5.824 14.381,6.085 14.402,6.344 C14.414,6.496 14.449,6.644 14.386,6.788 C14.295,7.072 14.089,7.305 13.819,7.431 C13.743,7.468 13.659,7.487 13.574,7.487 C13.554,7.487 13.534,7.483 13.514,7.483 C13.394,7.483 13.3,7.391 13.249,7.303 C13.201,7.219 13.167,7.127 13.149,7.031 C13.072,6.657 13.097,6.27 13.221,5.909 C13.301,5.689 13.423,5.474 13.601,5.315 C13.754,5.17 13.954,5.085 14.164,5.075 C14.238,5.071 14.311,5.094 14.37,5.139 C14.41,5.183 14.43,5.243 14.426,5.303 C14.433,5.315 14.434,5.33 14.43,5.343 M20.86,9.996 C20.845,10.04 20.8,10.1 20.78,10.136 C20.738,10.216 20.678,10.299 20.619,10.371 C20.522,10.481 20.416,10.583 20.302,10.675 C20.064,10.855 19.799,10.986 19.525,11.062 C19.366,11.106 19.203,11.13 19.038,11.134 L18.998,11.134 C18.81,11.137 18.628,11.073 18.483,10.954 C18.403,10.892 18.347,10.803 18.325,10.704 C18.31,10.6 18.327,10.494 18.372,10.399 C18.449,10.23 18.584,10.094 18.752,10.016 C19.078,9.856 19.434,9.84 19.771,9.856 C19.91,9.86 20.036,9.868 20.171,9.876 C20.278,9.88 20.389,9.888 20.496,9.9 C20.552,9.9 20.611,9.904 20.666,9.912 C20.71,9.916 20.758,9.908 20.801,9.92 C20.861,9.924 20.869,9.956 20.861,9.996" fill="#FD6A00"/>
  </g>
</svg>
